# Blender 4.3.2
# www.blender.org
o Plane
v -0.539319 -0.243979 -0.085991
v -0.704341 0.232933 0.082331
v -0.984878 0.317094 0.082331
v -0.704341 0.317094 0.082331
v -0.900717 0.232933 0.082331
v -0.900717 0.064611 0.082331
v -0.788502 0.064611 0.082331
v -0.788502 0.008504 0.082331
v -0.900717 0.008504 0.082331
v -0.900717 -0.187872 0.082331
v -0.704341 -0.187872 0.082331
v -0.704341 -0.243979 0.082331
v -0.984878 -0.243979 0.082331
v -0.539319 0.317094 -0.085991
v -0.258783 0.317094 -0.085991
v -0.258783 0.092665 -0.085991
v -0.399051 0.092665 -0.085991
v -0.258783 -0.243979 -0.085991
v -0.342944 -0.243979 -0.085991
v -0.455158 0.036558 -0.085991
v -0.455158 -0.243979 -0.085991
v 0.698342 -0.243979 0.082331
v 0.698342 0.317094 0.082331
v 0.978879 0.317094 0.082331
v 0.978879 0.092665 0.082331
v 0.838611 0.092665 0.082331
v 0.978879 -0.243979 0.082331
v 0.894718 -0.243979 0.082331
v 0.782503 0.036558 0.082331
v 0.782503 -0.243979 0.082331
v 0.277537 -0.243979 0.082331
v 0.572219 -0.243979 -0.085991
v 0.277537 -0.243979 -0.085991
v 0.782503 -0.243979 -0.085991
v 0.782503 0.036558 -0.085991
v 0.894718 -0.243979 -0.085991
v 0.978879 -0.243979 -0.085991
v 0.838611 0.092665 -0.085991
v 0.978879 0.092665 -0.085991
v 0.978879 0.317094 -0.085991
v 0.698342 0.317094 -0.085991
v 0.698342 -0.243979 -0.085991
v -0.455158 -0.243979 0.082331
v -0.455158 0.036558 0.082331
v -0.342944 -0.243979 0.082331
v -0.258783 -0.243979 0.082331
v -0.399051 0.092665 0.082331
v -0.258783 0.092665 0.082331
v -0.258783 0.317094 0.082331
v -0.539319 0.317094 0.082331
v -0.984878 -0.243979 -0.085991
v -0.704341 -0.243979 -0.085991
v -0.704341 -0.187872 -0.085991
v -0.900717 -0.187872 -0.085991
v -0.900717 0.008504 -0.085991
v -0.788502 0.008504 -0.085991
v -0.788502 0.064611 -0.085991
v -0.900717 0.064611 -0.085991
v -0.900717 0.232933 -0.085991
v -0.704341 0.317094 -0.085991
v -0.984878 0.317094 -0.085991
v -0.704341 0.232933 -0.085991
v -0.539319 -0.243979 0.082331
v -0.984878 0.064611 0.082331
v -0.984878 0.008504 0.082331
v -0.984878 0.064611 -0.085991
v -0.984878 0.008504 -0.085991
v 0.572219 -0.243979 0.082331
v 0.277537 -0.243979 0.082331
v 0.572219 -0.243979 0.082331
v 0.277537 0.317880 0.082331
v 0.572219 0.317880 0.082331
v 0.572219 0.317880 -0.085991
v 0.277537 0.317880 -0.085991
v -0.146411 -0.243979 0.082331
v -0.146411 0.317094 0.082331
v 0.134126 0.317094 0.082331
v 0.134126 0.092665 0.082331
v -0.006142 0.092665 0.082331
v 0.134126 -0.243979 0.082331
v 0.049965 -0.243979 0.082331
v -0.062250 0.036558 0.082331
v -0.062250 -0.243979 0.082331
v -0.062250 -0.243979 -0.085991
v -0.062250 0.036558 -0.085991
v 0.049965 -0.243979 -0.085991
v 0.134126 -0.243979 -0.085991
v -0.006142 0.092665 -0.085991
v 0.134126 0.092665 -0.085991
v 0.134126 0.317094 -0.085991
v -0.146411 0.317094 -0.085991
v -0.146411 -0.243979 -0.085991
vn -0.0000 1.0000 -0.0000
vn -0.0000 -0.0000 -1.0000
vn 1.0000 -0.0000 -0.0000
vn -1.0000 -0.0000 -0.0000
vn -0.0000 -1.0000 -0.0000
vn -0.0000 -0.0000 1.0000
vn 0.9231 0.3846 -0.0000
vn 0.9285 0.3714 -0.0000
vt 0.000000 0.000000
s 0
f 31/1/1 68/1/1 70/1/1 69/1/1
f 32/1/2 33/1/2 73/1/2
f 32/1/3 73/1/3 70/1/3
f 69/1/4 71/1/4 74/1/4
f 74/1/5 73/1/5 71/1/5
f 32/1/1 33/1/1 69/1/1
f 28/1/5 36/1/5 27/1/5
f 36/1/5 37/1/5 27/1/5
f 39/1/5 25/1/5 38/1/5
f 24/1/6 23/1/6 25/1/6
f 25/1/6 23/1/6 26/1/6
f 22/1/2 23/1/2 30/1/2
f 30/1/2 23/1/2 29/1/2
f 23/1/6 29/1/6 26/1/6
f 27/1/6 26/1/6 28/1/6
f 29/1/2 26/1/2 28/1/2
f 37/1/2 36/1/2 38/1/2
f 36/1/6 38/1/6 35/1/6
f 42/1/6 34/1/6 41/1/6
f 35/1/6 41/1/6 34/1/6
f 40/1/2 39/1/2 41/1/2
f 39/1/2 38/1/2 41/1/2
f 38/1/6 41/1/6 35/1/6
f 22/1/1 30/1/1 42/1/1
f 42/1/1 30/1/1 34/1/1
f 26/1/5 38/1/5 25/1/5
f 40/1/3 25/1/3 39/1/3
f 25/1/3 40/1/3 24/1/3
f 23/1/1 24/1/1 40/1/1
f 40/1/1 41/1/1 23/1/1
f 42/1/3 41/1/3 22/1/3
f 23/1/3 22/1/3 41/1/3
f 38/1/7 27/1/7 37/1/7
f 27/1/7 38/1/7 26/1/7
f 28/1/8 36/1/8 29/1/8
f 36/1/8 35/1/8 29/1/8
f 35/1/4 34/1/4 30/1/4
f 30/1/4 29/1/4 35/1/4
f 70/1/6 72/1/6 69/1/6
f 72/1/6 71/1/6 69/1/6
f 71/1/1 72/1/1 73/1/1
f 73/1/6 74/1/6 33/1/6
f 74/1/3 69/1/3 33/1/3
f 70/1/3 73/1/3 72/1/3
f 69/1/5 32/1/5 70/1/5
f 81/1/5 86/1/5 80/1/5
f 86/1/5 87/1/5 80/1/5
f 89/1/5 78/1/5 88/1/5
f 77/1/6 76/1/6 78/1/6
f 78/1/6 76/1/6 79/1/6
f 75/1/2 76/1/2 83/1/2
f 83/1/2 76/1/2 82/1/2
f 76/1/6 82/1/6 79/1/6
f 80/1/6 79/1/6 81/1/6
f 82/1/2 79/1/2 81/1/2
f 87/1/2 86/1/2 88/1/2
f 86/1/6 88/1/6 85/1/6
f 92/1/6 84/1/6 91/1/6
f 85/1/6 91/1/6 84/1/6
f 90/1/2 89/1/2 91/1/2
f 89/1/2 88/1/2 91/1/2
f 88/1/6 91/1/6 85/1/6
f 75/1/1 83/1/1 92/1/1
f 92/1/1 83/1/1 84/1/1
f 79/1/5 88/1/5 78/1/5
f 90/1/3 78/1/3 89/1/3
f 78/1/3 90/1/3 77/1/3
f 76/1/1 77/1/1 90/1/1
f 90/1/1 91/1/1 76/1/1
f 92/1/3 91/1/3 75/1/3
f 76/1/3 75/1/3 91/1/3
f 88/1/7 80/1/7 87/1/7
f 80/1/7 88/1/7 79/1/7
f 81/1/8 86/1/8 82/1/8
f 86/1/8 85/1/8 82/1/8
f 85/1/4 84/1/4 83/1/4
f 83/1/4 82/1/4 85/1/4
f 45/1/5 19/1/5 46/1/5
f 19/1/5 18/1/5 46/1/5
f 16/1/5 48/1/5 17/1/5
f 49/1/6 50/1/6 48/1/6
f 48/1/6 50/1/6 47/1/6
f 63/1/2 50/1/2 43/1/2
f 43/1/2 50/1/2 44/1/2
f 50/1/6 44/1/6 47/1/6
f 46/1/6 47/1/6 45/1/6
f 44/1/2 47/1/2 45/1/2
f 18/1/2 19/1/2 17/1/2
f 19/1/6 17/1/6 20/1/6
f 1/1/6 21/1/6 14/1/6
f 20/1/6 14/1/6 21/1/6
f 15/1/2 16/1/2 14/1/2
f 16/1/2 17/1/2 14/1/2
f 17/1/6 14/1/6 20/1/6
f 63/1/1 43/1/1 1/1/1
f 1/1/1 43/1/1 21/1/1
f 47/1/5 17/1/5 48/1/5
f 15/1/3 48/1/3 16/1/3
f 48/1/3 15/1/3 49/1/3
f 50/1/1 49/1/1 15/1/1
f 15/1/1 14/1/1 50/1/1
f 1/1/3 14/1/3 63/1/3
f 50/1/3 63/1/3 14/1/3
f 17/1/7 46/1/7 18/1/7
f 46/1/7 17/1/7 47/1/7
f 45/1/8 19/1/8 44/1/8
f 19/1/8 20/1/8 44/1/8
f 20/1/4 21/1/4 43/1/4
f 43/1/4 44/1/4 20/1/4
f 2/1/6 4/1/6 5/1/6
f 4/1/6 3/1/6 5/1/6
f 62/1/6 60/1/6 59/1/6
f 61/1/6 59/1/6 60/1/6
f 3/1/1 4/1/1 61/1/1
f 60/1/5 4/1/5 61/1/5
f 62/1/4 2/1/4 60/1/4
f 2/1/3 60/1/3 4/1/3
f 5/1/6 3/1/6 6/1/6
f 3/1/6 64/1/6 6/1/6
f 59/1/6 61/1/6 58/1/6
f 61/1/6 66/1/6 58/1/6
f 3/1/4 61/1/4 64/1/4
f 66/1/3 61/1/3 64/1/3
f 59/1/4 58/1/4 5/1/4
f 6/1/3 58/1/3 5/1/3
f 2/1/5 5/1/5 62/1/5
f 59/1/1 5/1/1 62/1/1
f 58/1/1 7/1/1 57/1/1
f 7/1/1 58/1/1 6/1/1
f 57/1/4 56/1/4 8/1/4
f 8/1/3 57/1/3 7/1/3
f 56/1/6 58/1/6 55/1/6
f 57/1/6 58/1/6 56/1/6
f 67/1/6 55/1/6 66/1/6
f 58/1/6 66/1/6 55/1/6
f 65/1/3 67/1/3 64/1/3
f 66/1/3 64/1/3 67/1/3
f 9/1/6 6/1/6 65/1/6
f 64/1/2 6/1/2 65/1/2
f 8/1/6 7/1/6 9/1/6
f 6/1/6 9/1/6 7/1/6
f 8/1/5 9/1/5 56/1/5
f 56/1/1 55/1/1 9/1/1
f 13/1/4 65/1/4 51/1/4
f 67/1/4 51/1/4 65/1/4
f 52/1/2 51/1/2 53/1/2
f 54/1/2 53/1/2 51/1/2
f 67/1/2 55/1/2 51/1/2
f 54/1/2 51/1/2 55/1/2
f 9/1/6 13/1/6 10/1/6
f 65/1/6 13/1/6 9/1/6
f 13/1/6 12/1/6 10/1/6
f 11/1/6 10/1/6 12/1/6
f 54/1/1 11/1/1 53/1/1
f 11/1/1 54/1/1 10/1/1
f 53/1/3 12/1/3 52/1/3
f 12/1/3 53/1/3 11/1/3
f 55/1/3 10/1/3 54/1/3
f 10/1/3 55/1/3 9/1/3
f 52/1/5 12/1/5 51/1/5
f 13/1/5 51/1/5 12/1/5
